HIERARCHY
ROOT root
{
	OFFSET	0	13.1	24.9
	CHANNELS 6  Xposition Yposition Zposition Xrotation Yrotation Zrotation
	JOINT spine_1
	{
		OFFSET	0	9.99999	0
		CHANNELS 3  Xrotation Yrotation Zrotation
		JOINT spine_2
		{
			OFFSET	0	112	-10
			CHANNELS 3  Xrotation Yrotation Zrotation
			JOINT spine_3
			{
				OFFSET	0	206.5	19.3
				CHANNELS 3  Xrotation Yrotation Zrotation
				JOINT spine_4
				{
					OFFSET	0	110.4	14.6
					CHANNELS 3  Xrotation Yrotation Zrotation
					JOINT neck_1
					{
						OFFSET	0	71.8	-50.3
						CHANNELS 3  Xrotation Yrotation Zrotation
						JOINT neck_2
						{
							OFFSET	0	86.2	-25.8
							CHANNELS 3  Xrotation Yrotation Zrotation
							JOINT head_ee
							{
								OFFSET	0	179.8	-8.7
								CHANNELS 3  Xrotation Yrotation Zrotation
								End Site
								{
									OFFSET	1	0	0
								}
							}
						}
					}
					JOINT left_clavicle
					{
						OFFSET	-43.2	22.4	-70.8
						CHANNELS 3  Xrotation Yrotation Zrotation
						JOINT left_shoulder
						{
							OFFSET	-93.9	-5.79999	48.7
							CHANNELS 3  Xrotation Yrotation Zrotation
							JOINT left_elbow
							{
								OFFSET	-291.4	-30.8	15.2
								CHANNELS 3  Xrotation Yrotation Zrotation
								JOINT left_lowarm_twist
								{
									OFFSET	-110.7	-3.89999	13.6
									CHANNELS 3  Xrotation Yrotation Zrotation
									JOINT left_hand
									{
										OFFSET	-110.7	-3.89999	13.6
										CHANNELS 3  Xrotation Yrotation Zrotation
										JOINT left_ee
										{
											OFFSET	-80.8	-5.10001	12.1
											CHANNELS 3  Xrotation Yrotation Zrotation
											End Site
											{
												OFFSET	1	0	0
											}
										}
									}
								}
							}
						}
					}
					JOINT right_clavicle
					{
						OFFSET	43.2	22.4	-70.8
						CHANNELS 3  Xrotation Yrotation Zrotation
						JOINT right_shoulder
						{
							OFFSET	93.9	-5.79999	48.7
							CHANNELS 3  Xrotation Yrotation Zrotation
							JOINT right_elbow
							{
								OFFSET	291.4	-30.8	15.2
								CHANNELS 3  Xrotation Yrotation Zrotation
								JOINT right_lowarm_twist
								{
									OFFSET	110.7	-3.89999	13.6
									CHANNELS 3  Xrotation Yrotation Zrotation
									JOINT right_hand
									{
										OFFSET	110.7	-3.89999	13.6
										CHANNELS 3  Xrotation Yrotation Zrotation
										JOINT right_ee
										{
											OFFSET	80.8	-5.10001	12.1
											CHANNELS 3  Xrotation Yrotation Zrotation
											End Site
											{
												OFFSET	1	0	0
											}
										}
									}
								}
							}
						}
					}
				}
			}
		}
	}
	JOINT left_hip
	{
		OFFSET	-82.8	-127.5	0.300001
		CHANNELS 3  Xrotation Yrotation Zrotation
		JOINT left_knee
		{
			OFFSET	-28.2	-396.7	2.2
			CHANNELS 3  Xrotation Yrotation Zrotation
			JOINT left_ankle
			{
				OFFSET	-11.7	-411.3	35.4
				CHANNELS 3  Xrotation Yrotation Zrotation
				JOINT left_toes
				{
					OFFSET	0	-60	-88.6
					CHANNELS 3  Xrotation Yrotation Zrotation
					JOINT left_foot_ee
					{
						OFFSET	-22.5	-16.5	-42.2
						CHANNELS 3  Xrotation Yrotation Zrotation
						End Site
						{
							OFFSET	1	0	0
						}
					}
				}
			}
		}
	}
	JOINT right_hip
	{
		OFFSET	82.8	-127.5	0.300001
		CHANNELS 3  Xrotation Yrotation Zrotation
		JOINT right_knee
		{
			OFFSET	28.2	-396.7	2.2
			CHANNELS 3  Xrotation Yrotation Zrotation
			JOINT right_ankle
			{
				OFFSET	11.7	-411.3	35.4
				CHANNELS 3  Xrotation Yrotation Zrotation
				JOINT right_toes
				{
					OFFSET	0	-60	-88.6
					CHANNELS 3  Xrotation Yrotation Zrotation
					JOINT right_foot_ee
					{
						OFFSET	22.5	-16.5	-42.2
						CHANNELS 3  Xrotation Yrotation Zrotation
						End Site
						{
							OFFSET	1	0	0
						}
					}
				}
			}
		}
	}
}
MOTION
Frames: 5
Frame Time: 0.02
1144.47201814 733.975 -1691.50042688 4.2721901836 56.4108966734 4.14442242803 1.02018 -0.878226 -5.67909 1.03796 -0.515678 -5.72326 1.09379 0.590815 -5.71602 1.04837 -0.317805 -5.7376 -4.85256 5.1067 10.8628 -4.52865 1.15145 11.9548 -0.0 0.0 -0.0 8.40387 5.59433 16.1899 -31.6999 -29.8697 71.9272 0.813134 -21.9396 0.157615 -12.5042 -0.604417 1.47694 -0.387254 28.115 8.89685 -0.0 0.0 -0.0 -1.34375 3.88217 3.14513 1.00197 4.50985 -63.6516 2.15871 46.9137 -0.93679 15.7966 -0.283641 1.99157 4.19325 20.0117 -19.5771 0.0 0.0 0.0 22.1272 -22.8276 -1.86013 -58.1699 -2.00565 8.32074 16.7699 23.474 -2.41684 -22.9346 0.0 0.0 -0.0 0.0 -0.0 -4.78075 -37.4778 -11.7274 -13.56 -0.316763 -2.05202 19.4103 26.2848 3.18281 34.3524 -0.0 -0.0 0.0 0.0 0.0 
1149.63251062 733.975 -1696.80389224 4.12700295706 55.0640538416 4.32008245414 1.02018 -0.878226 -5.67909 1.03796 -0.515678 -5.72326 1.09379 0.590815 -5.71602 1.04837 -0.317805 -5.7376 -4.85256 5.1067 10.8628 -4.52865 1.15145 11.9548 -0.0 0.0 -0.0 8.40387 5.59433 16.1899 -31.6999 -29.8697 71.9272 0.813134 -21.9396 0.157615 -12.5042 -0.604417 1.47694 -0.387254 28.115 8.89685 -0.0 0.0 -0.0 -1.34375 3.88217 3.14513 1.00197 4.50985 -63.6516 2.15871 46.9137 -0.93679 15.7966 -0.283641 1.99157 4.19325 20.0117 -19.5771 0.0 0.0 0.0 22.1272 -22.8276 -1.86013 -58.1699 -2.00565 8.32074 16.7699 23.474 -2.41684 -22.9346 0.0 0.0 -0.0 0.0 -0.0 -4.78075 -37.4778 -11.7274 -13.56 -0.316763 -2.05202 19.4103 26.2848 3.18281 34.3524 -0.0 -0.0 0.0 0.0 0.0 
1133.34658869 735.838 -1710.3318714 4.54496373943 54.8453499067 4.21005392266 1.02278 -0.905598 -5.6866 1.0406 -0.542519 -5.7325 1.09924 0.56557 -5.73028 1.05362 -0.344978 -5.74772 -6.31128 4.81173 10.6299 -5.99895 1.08471 11.6147 -0.0 0.0 -0.0 7.90047 5.17192 15.2461 -31.4897 -28.5555 74.1542 0.732613 -19.9466 0.128829 -13.2549 -0.650819 1.56106 -0.637011 27.7791 7.39486 -0.0 0.0 -0.0 -1.41024 4.00191 3.2951 2.24117 7.6254 -63.2789 2.12566 46.4727 -0.91274 15.8277 -0.283654 1.99554 3.87369 17.6137 -18.6299 0.0 0.0 0.0 22.8867 -21.6565 -2.86468 -54.873 -1.67253 7.93689 18.0646 25.4877 -2.61857 -23.8969 0.0 0.0 -0.0 0.0 -0.0 -7.17319 -37.7954 -12.4083 -13.9306 -0.318558 -2.10884 19.2516 26.6481 3.17287 34.3891 -0.0 -0.0 0.0 0.0 0.0 
1105.30396614 730.953 -1725.53752479 4.16305389869 56.6768738666 4.3475939093 1.28334 -0.715168 -5.5006 1.30009 -0.36425 -5.53482 1.33789 0.680348 -5.50501 1.29568 -0.196221 -5.5433 -6.65227 4.13567 10.4252 -6.3486 0.0515636 11.2717 -0.0 0.0 -0.0 7.67396 5.50295 14.802 -34.064 -28.8777 71.9381 0.747801 -20.3265 0.134058 -11.8016 -0.561995 1.39767 -0.0788813 26.6936 10.0899 -0.0 0.0 -0.0 -2.09812 1.94649 4.36221 3.6758 7.96162 -63.7313 2.69527 53.1583 -1.34865 15.5069 -0.283414 1.95456 4.41018 20.455 -20.8449 0.0 0.0 0.0 22.6284 -23.2283 -4.70807 -49.3946 -1.16986 7.25934 21.8827 20.6279 -3.0474 -23.0938 0.0 0.0 -0.0 0.0 -0.0 -3.89099 -36.0167 -8.89213 -20.9732 -0.282801 -3.18814 20.9804 28.6141 3.50572 36.5765 -0.0 -0.0 0.0 0.0 0.0 
1093.31563535 732.716 -1735.41876161 3.26487883722 56.1425049596 4.44433189294 1.05097 -0.55346 -5.23251 1.06616 -0.21985 -5.25703 1.08943 0.793078 -5.20167 1.0517 -0.0372006 -5.26149 -7.05241 3.90267 11.4369 -6.68362 -1.04291 12.2285 -0.0 0.0 -0.0 7.84403 5.56212 15.1229 -35.2593 -28.8805 70.7859 0.719731 -19.6229 0.124469 -12.1018 -0.580004 1.43161 -0.0750316 26.3197 9.97662 -0.0 0.0 -0.0 -2.06302 1.24238 4.18428 3.94113 8.53572 -63.4489 2.94755 55.5829 -1.55375 15.9721 -0.283688 2.01397 4.27924 19.7778 -20.3058 0.0 0.0 0.0 22.3911 -24.9625 -4.43212 -41.9332 -0.594317 6.26677 21.2458 22.8275 -2.99698 -23.355 0.0 0.0 -0.0 0.0 -0.0 -2.7284 -34.3132 -7.46827 -22.6636 -0.2545 -3.44597 22.0253 29.9244 3.71881 37.4099 -0.0 -0.0 0.0 0.0 0.0 
